<?xml version="1.0" encoding="utf-8"?>
<!-- Generator: Adobe Illustrator 16.0.0, SVG Export Plug-In . SVG Version: 6.00 Build 0)  -->
<!DOCTYPE svg PUBLIC "-//W3C//DTD SVG 1.0//EN" "http://www.w3.org/TR/2001/REC-SVG-20010904/DTD/svg10.dtd">
<svg version="1.0" id="Calque_1" xmlns="http://www.w3.org/2000/svg" xmlns:xlink="http://www.w3.org/1999/xlink" x="0px" y="0px"
	 width="283.465px" height="283.465px" viewBox="0 0 283.465 283.465" enable-background="new 0 0 283.465 283.465"
	 xml:space="preserve">
<circle fill="#FFD200" cx="142.705" cy="144.104" r="130.324"/>
<path fill="#FF5021" d="M188.107,38.918h-85.331c-23.567,0-42.748,19.556-42.748,43.124V246.62
	c20,16.913,45.395,28.267,73.147,30.399c1.862-1.58,4.306-2.102,6.946-2.102h10.659c2.417,0,4.267,0.379,6.058,1.736
	c28.252-3.037,54.19-15.624,73.19-33.886V82.042C230.029,58.474,211.693,38.918,188.107,38.918z"/>
<path fill="#FF8D00" d="M209.029,230.857c0,6.108-4.788,11.061-10.695,11.061H90.724c-5.907,0-10.695-4.952-10.695-11.061V82.979
	c0-6.108,4.788-11.061,10.695-11.061h107.61c5.907,0,10.695,4.952,10.695,11.061V230.857z"/>
<g>
	
		<image overflow="visible" opacity="0.22" width="84" height="120" xlink:href="ADCB1D200ACD2CED.png"  transform="matrix(1 0 0 1 102.7769 89.666)">
	</image>
	<g>
		<path fill-rule="evenodd" clip-rule="evenodd" fill="#FFFFFF" d="M142.672,154.363c0-20.591,0-40.219,0-61.271
			c11.537,0,22.607-0.11,33.668,0.155c1.243,0.029,2.561,2.089,3.586,3.406c0.411,0.525,0.211,1.599,0.148,2.409
			c-0.533,6.937,1.33,16.119-2.384,20.131c-3.272,3.534-12.787,1.292-20.644,1.65c0,18.004,0.103,35.684-0.082,53.362
			c-0.04,4.01-0.478,8.228-1.79,11.977c-4.354,12.418-19.133,19.385-31.383,15.219c-12.716-4.32-19.997-17.411-16.639-29.897
			c3.519-13.08,16.119-20.706,29.551-17.932C138.284,153.898,139.911,154.005,142.672,154.363z"/>
	</g>
</g>
</svg>
